<svg id="_x33_0" enable-background="new 0 0 64 64" height="512" viewBox="0 0 64 64" width="512" xmlns="http://www.w3.org/2000/svg"><g><g><g><path d="m14.47 9.31c-.3-.54-.47-1.15-.47-1.77 0-1.96 1.58-3.54 3.54-3.54h.51c.09-.49.33-.94.67-1.28.45-.44 1.07-.72 1.75-.72h5.93c4.75 0 8.6 3.85 8.6 8.6 0 .93-.15 1.85-.44 2.72l-.5 1.5c-.53-.5-1.26-.82-2.06-.82h-1v-.23c0-1.01-.75-1.86-1.75-1.99l-4.39-.55c-1.01-.12-1.78-.94-1.84-1.95h-.01l-3.11.89c-1.71.49-2.89 2.05-2.9 3.83h-1c-.72 0-1.38.26-1.9.68-.7-.65-1.1-1.57-1.1-2.54 0-1.13.55-2.18 1.47-2.83z" fill="#656d78"/></g><g><path d="m24 52h-10v2 6 2h10 10v-10z" fill="#969faa"/></g><g><path d="m14 54h-4-1c-.55 0-1-.45-1-1v-16.22c0-3.91 2.83-7.25 6.68-7.89l2.46-.41 1.86 6.52 5-4v21h-10z" fill="#4fc1e9"/></g><g><path d="m24 52v-21l5 4 2-7h7v8h-4v16z" fill="#4fc1e9"/></g><g><path d="m31 28-2 7-5-4 4-3z" fill="#3bafda"/></g><g><path d="m24 31-5 4-1.86-6.52 2.86-.48z" fill="#3bafda"/></g><g><path d="m14 54v6h-1c-1.66 0-3-1.34-3-3v-3z" fill="#f0d0b4"/></g><g><path d="m49.12 8.88c-.54-.54-1.29-.88-2.12-.88-1.66 0-3 1.34-3 3v1l-.39.2c-.99.49-1.61 1.5-1.61 2.6 0 .38.08.76.22 1.1.14.35.36.68.63.95l1.15 1.15h6v-3.32-3.68c0-.83-.34-1.58-.88-2.12z" fill="#f0d0b4"/></g><g><path d="m34.06 14.82c.58.55.94 1.32.94 2.18 0 .83-.34 1.58-.88 2.12s-1.29.88-2.12.88h-1.29c.19-.63.29-1.3.29-2v-4h1c.8 0 1.53.32 2.06.82z" fill="#f0d0b4"/></g><g><path d="m27.07 24.29.93 3.71-4 3-4-3 .93-3.71c.92.46 1.96.71 3.07.71s2.15-.25 3.07-.71z" fill="#f0d0b4"/></g><g><path d="m31 14v4c0 .7-.1 1.37-.29 2-.33 1.13-.95 2.14-1.76 2.95-.55.55-1.18 1-1.88 1.34-.92.46-1.96.71-3.07.71s-2.15-.25-3.07-.71c-1.74-.85-3.08-2.4-3.64-4.29-.19-.63-.29-1.3-.29-2v-3.98c0-.01 0-.01 0-.02.01-1.78 1.19-3.34 2.9-3.83l3.11-.89h.01c.06 1.01.83 1.83 1.84 1.95l4.39.55c1 .13 1.75.98 1.75 1.99z" fill="#f0d0b4"/></g><g><path d="m17.29 20h-1.29c-.83 0-1.58-.34-2.12-.88s-.88-1.29-.88-2.12c0-.94.43-1.77 1.1-2.32.52-.42 1.18-.68 1.9-.68h1v.02 3.98c0 .7.1 1.37.29 2z" fill="#f0d0b4"/></g><g><path d="m44 18h6v6h-6z" fill="#4fc1e9"/></g><g><path d="m56 25v19c0 1.1-.9 2-2 2h-14c-1.1 0-2-.9-2-2v-8-8-3c0-.55.45-1 1-1h1 4 6 4 1c.55 0 1 .45 1 1z" fill="#cf9e76"/></g><g><path d="m42 30h10v8h-10z" fill="#e6e9ed"/></g></g><g><circle cx="21" cy="16" r="1"/><circle cx="27" cy="16" r="1"/><path d="m27.789 19.658.105-.211-1.789-.895-.105.212c-.381.762-1.147 1.236-2 1.236s-1.619-.474-2-1.236l-.105-.211-1.789.895.105.211c.722 1.444 2.174 2.341 3.789 2.341s3.067-.897 3.789-2.342z"/><path d="m27 45h2v2h-2z"/><path d="m27 41h2v2h-2z"/><path d="m53 29h-12v10h12zm-2 8h-8v-6h8z"/><path d="m55 23v-2c0-2.953-1.613-5.532-4-6.918v-3.082c0-2.206-1.794-4-4-4s-4 1.794-4 4v.386c-1.238.691-2 1.982-2 3.41 0 .282.035.558.093.828-1.295 1.422-2.093 3.305-2.093 5.376v2c-1.103 0-2 .897-2 2v2h-8.219l-.555-2.22c1.422-.89 2.547-2.209 3.185-3.78h.589c2.206 0 4-1.794 4-4 0-.901-.31-1.724-.815-2.393l.322-.966c.327-.981.493-2.002.493-3.037 0-5.295-4.308-9.604-9.604-9.604h-5.924c-1.395 0-2.593.832-3.144 2.021-2.403.111-4.328 2.084-4.328 4.514 0 .513.097 1.02.266 1.502-.797.819-1.266 1.918-1.266 3.107 0 .899.281 1.772.779 2.506-.484.661-.779 1.469-.779 2.35 0 2.206 1.794 4 4 4h.589c.638 1.571 1.763 2.891 3.185 3.78l-.585 2.341-4.669.778c-4.357.726-7.52 4.46-7.52 8.878v16.223c0 1.103.897 2 2 2v2c0 2.206 1.794 4 4 4v2h22v-26h2v7c0 1.654 1.346 3 3 3h14c1.654 0 3-1.346 3-3v-19c0-1.103-.897-2-2-2zm-2-2v2h-2v-6.46c1.224 1.1 2 2.689 2 4.46zm-4-4h-4.586l-.856-.855c-.01-.01-.017-.022-.026-.032.98-.698 2.176-1.113 3.468-1.113.702 0 1.373.128 2 .35zm-4 2h4v4h-4zm-.947-5.909.947-.472v-1.619c0-1.103.897-2 2-2s2 .897 2 2v2.263c-.641-.166-1.308-.263-2-.263-1.37 0-2.661.347-3.789.957.18-.365.461-.676.842-.866zm-3.053 7.909c0-1.295.417-2.492 1.117-3.474.01.01.017.023.027.033l.856.855v4.586h-2zm-11.326 8-1.223 4.28-2.818-2.255 2.7-2.025zm2.326-10h-.069c.041-.328.069-.661.069-1v-3c1.103 0 2 .897 2 2s-.897 2-2 2zm-16 0c-1.103 0-2-.897-2-2s.897-2 2-2v3c0 .339.028.672.069 1zm.119-6h-.119c-.593 0-1.152.138-1.658.371-.214-.372-.342-.792-.342-1.227 0-.941.523-1.787 1.365-2.208l2.083-1.041-.895-1.789-1.51.755c-.014-.109-.043-.216-.043-.326 0-1.232.885-2.26 2.052-2.486.18 1.085.859 2.025 1.867 2.529l.633.316.894-1.789-.633-.316c-.501-.251-.813-.756-.813-1.317 0-.812.661-1.472 1.472-1.472h5.924c4.193 0 7.604 3.411 7.604 7.604 0 .819-.131 1.628-.39 2.404l-.098.293c-.467-.191-.977-.301-1.512-.301h-.112c-.308-1.156-1.281-2.057-2.516-2.211l-4.387-.549c-.562-.07-.985-.55-.985-1.115 0-.62.504-1.125 1.125-1.125h.875v-2h-.875c-1.514 0-2.78 1.082-3.064 2.515l-2.435.695c-1.8.515-3.131 2.005-3.507 3.79zm1.881 5v-3.982c0-1.332.895-2.519 2.175-2.885l2.153-.615c.455.909 1.342 1.574 2.408 1.707l4.387.549c.5.063.876.489.876.992v4.234c0 3.309-2.691 6-6 6s-5.999-2.691-5.999-6zm6 8c.828 0 1.627-.127 2.379-.361l.49 1.96-2.869 2.151-2.869-2.152.49-1.96c.752.235 1.551.362 2.379.362zm-4.257 3.057 2.625 1.969-2.818 2.255-1.143-4.001zm-10.743 7.72c0-3.437 2.46-6.341 5.849-6.905l1.571-.262 2.031 7.109 4.549-3.638v17.919h-8v-14h-2v16h-4zm2 20.223v-2h2v4c-1.103 0-2-.897-2-2zm4-4h8v8h-8zm10 8v-8h8v8zm8-26v16h-8v-17.919l4.549 3.639 2.205-7.72h5.246v6zm22 9c0 .552-.449 1-1 1h-14c-.551 0-1-.448-1-1v-19h16z"/></g></g></svg>